<svg id="Layer_1" data-name="Layer 1" xmlns="http://www.w3.org/2000/svg" viewBox="0 0 50 50"><defs><style>.cls-1,.cls-2{fill:none;}.cls-2{stroke:#93331c;stroke-linecap:round;stroke-linejoin:round;stroke-width:0.75px;}</style></defs><title>monogram</title><path class="cls-1" d="M27,30a2.36,2.36,0,0,0-1.16-.61l-1.2,5a2.83,2.83,0,0,0,3-3.07A2.33,2.33,0,0,0,27,30Z"/><path class="cls-2" d="M47.19,13a12.41,12.41,0,0,0-3.53-6.93,13.37,13.37,0,0,0-4.35-2.73c-4.8-2-12.55-2.74-18.08,1.47a16.35,16.35,0,0,0-4,4.48,15.37,15.37,0,0,0-1.83,4.92A13.29,13.29,0,0,1,22,7.72a12.88,12.88,0,0,1,6.35-1L25.31,19l-2.22-.65c.81-3,1.82-6.5,2.63-9.55a12.66,12.66,0,0,0-2.17.55A13.66,13.66,0,0,0,22,10,13.55,13.55,0,0,0,17,15a16.39,16.39,0,0,0-.91,1.69,12.43,12.43,0,0,0-1.46-.19,13,13,0,0,0-6,1A12.14,12.14,0,0,0,2.7,24.28a14.76,14.76,0,0,1,7.67-1.54,14.39,14.39,0,0,1,4.53,1.11l-2,8.07a20.21,20.21,0,0,0-.68,2.76,15.24,15.24,0,0,0,.05,7.16,8.68,8.68,0,0,0,2.06,4A8.25,8.25,0,0,0,18.18,48a8.79,8.79,0,0,0,5.68-.56,9.71,9.71,0,0,0,5.4-6.05,6.12,6.12,0,0,1-5.91,2.89,5.72,5.72,0,0,1-4.24-2.85c-.74-1.39-.6-2.8-.38-4.94a17.13,17.13,0,0,1,.51-2.76l2.1-8.35c.9.22,1.38.44,2.28.66l-2.34,9.88a9.88,9.88,0,0,0-.17,1c-.17,1.38-.31,2.58.24,3.49a3.53,3.53,0,0,0,4.08,1.3c1.34-.57,1.84-2.16,2.25-3.46a8.43,8.43,0,0,0,.24-1L30,27.82c2.4.25,6.93.14,9.61-1.15a13.93,13.93,0,0,0,5.81-5.41A12.78,12.78,0,0,0,47.19,13Zm-9.86,6.85a6.87,6.87,0,0,1-2.84.72,8.83,8.83,0,0,1-3.09-.31l3-12.91a7.38,7.38,0,0,1,4.34,2.49,6.86,6.86,0,0,1,1.66,4.43A6.5,6.5,0,0,1,37.33,19.85Z"/></svg>